<svg class="animated" id="freepik_stories-confirmed" xmlns="http://www.w3.org/2000/svg" viewBox="0 0 500 500" version="1.1" xmlns:xlink="http://www.w3.org/1999/xlink" xmlns:svgjs="http://svgjs.com/svgjs"><style>svg#freepik_stories-confirmed:not(.animated) .animable {opacity: 0;}svg#freepik_stories-confirmed.animated #freepik--Shadow--inject-409 {animation: 1s 1 forwards cubic-bezier(.36,-0.01,.5,1.38) slideUp;animation-delay: 0s;}svg#freepik_stories-confirmed.animated #freepik--Smartphone--inject-409 {animation: 1s 1 forwards cubic-bezier(.36,-0.01,.5,1.38) slideLeft;animation-delay: 0s;}svg#freepik_stories-confirmed.animated #freepik--Character--inject-409 {animation: 1s 1 forwards cubic-bezier(.36,-0.01,.5,1.38) slideRight;animation-delay: 0s;}            @keyframes slideUp {                0% {                    opacity: 0;                    transform: translateY(30px);                }                100% {                    opacity: 1;                    transform: inherit;                }            }                    @keyframes slideLeft {                0% {                    opacity: 0;                    transform: translateX(-30px);                }                100% {                    opacity: 1;                    transform: translateX(0);                }            }                    @keyframes slideRight {                0% {                    opacity: 0;                    transform: translateX(30px);                }                100% {                    opacity: 1;                    transform: translateX(0);                }            }        </style><g id="freepik--Shadow--inject-409" class="animable" style="transform-origin: 250px 416.24px;"><ellipse id="freepik--path--inject-409" cx="250" cy="416.24" rx="193.89" ry="11.32" style="fill: rgb(245, 245, 245); transform-origin: 250px 416.24px;" class="animable"></ellipse></g><g id="freepik--Smartphone--inject-409" class="animable" style="transform-origin: 307.075px 261.545px;"><path d="M377.55,109.15H262.46a15.87,15.87,0,0,0-15.56,14.62L229,399.33a13.56,13.56,0,0,0,13.67,14.61H357.8a15.86,15.86,0,0,0,15.56-14.61L386.2,201.27a3,3,0,0,0,2-2.57l2.3-35.44a2.54,2.54,0,0,0-1.66-2.57l2.39-36.92A13.57,13.57,0,0,0,377.55,109.15Z" style="fill: rgb(64, 123, 255); transform-origin: 310.115px 261.545px;" id="elaeck8ajk69h" class="animable"></path><path d="M237.58,180.5h2.26a2.82,2.82,0,0,0,2.76-2.59l1-14.8a2.41,2.41,0,0,0-2.43-2.59h-2.25a2.81,2.81,0,0,0-2.76,2.59l-1,14.8A2.41,2.41,0,0,0,237.58,180.5Z" style="fill: rgb(64, 123, 255); transform-origin: 239.38px 170.51px;" id="eln6660e6bv5i" class="animable"></path><path d="M235.87,206.92h2.25a2.83,2.83,0,0,0,2.77-2.6l1-14.79a2.41,2.41,0,0,0-2.43-2.59h-2.25a2.82,2.82,0,0,0-2.77,2.59l-1,14.79A2.4,2.4,0,0,0,235.87,206.92Z" style="fill: rgb(64, 123, 255); transform-origin: 237.664px 196.93px;" id="el1p2xuzhxrmdi" class="animable"></path><path d="M351.68,413.94H236.59a13.56,13.56,0,0,1-13.67-14.61l17.86-275.56a15.88,15.88,0,0,1,15.57-14.62H371.43a13.57,13.57,0,0,1,13.67,14.62L367.24,399.33A15.86,15.86,0,0,1,351.68,413.94Z" style="fill: rgb(38, 50, 56); transform-origin: 304.01px 261.545px;" id="el6rjhb68kmy" class="animable"></path><g id="el22onepdmldn"><ellipse cx="295.34" cy="395.36" rx="10.16" ry="9.52" style="fill: rgb(255, 255, 255); opacity: 0.2; transform-origin: 295.34px 395.36px; transform: rotate(-44.07deg);" class="animable"></ellipse></g><path d="M362.08,378.17H231.25A3.26,3.26,0,0,1,228,374.7l15.31-236.32a3.27,3.27,0,0,1,3.25-3H377.4a3.26,3.26,0,0,1,3.25,3.47L365.33,375.12A3.26,3.26,0,0,1,362.08,378.17Z" style="fill: rgb(255, 255, 255); transform-origin: 304.325px 256.775px;" id="elf3qogvjuqg9" class="animable"></path><g id="el3m953cb94x1"><ellipse cx="301.54" cy="260.18" rx="36.88" ry="34.56" style="fill: rgb(64, 123, 255); opacity: 0.2; transform-origin: 301.54px 260.18px; transform: rotate(-44.07deg);" class="animable"></ellipse></g><g id="el0y98rj5s6s9e"><path d="M298,315.26c-30.37,0-53.48-24.71-51.51-55.08s28.27-55.08,58.65-55.08,53.48,24.71,51.51,55.08S328.34,315.26,298,315.26ZM305,206.1c-29.82,0-55.65,24.26-57.58,54.08s20.75,54.08,50.57,54.08,55.65-24.26,57.59-54.08S334.86,206.1,305,206.1Z" style="fill: rgb(64, 123, 255); opacity: 0.2; transform-origin: 301.57px 260.18px;" class="animable"></path></g><path d="M293,277.49l-3-5.79c-6.5-12.61-21.47-23.88-26.7-27.16l4.94-7.39c6.19,3.88,18.56,13.49,26.32,24.91,14.35-17,34.63-34.51,61.78-53.4l4.63,7c-29,20.18-49.87,38.63-63.75,56.41Z" style="fill: rgb(64, 123, 255); transform-origin: 312.135px 243.075px;" id="el5tuez83846" class="animable"></path><g id="ell8bbyr5qpq"><ellipse cx="288.9" cy="122.1" rx="4.11" ry="3.86" style="fill: rgb(255, 255, 255); opacity: 0.2; transform-origin: 288.9px 122.1px; transform: rotate(-44.07deg);" class="animable"></ellipse></g><g id="elax88kzhzz8l"><path d="M302.91,118.12H336a3.69,3.69,0,0,1,3.72,4h0a4.33,4.33,0,0,1-4.24,4H302.4a3.71,3.71,0,0,1-3.73-4h0A4.33,4.33,0,0,1,302.91,118.12Z" style="fill: rgb(255, 255, 255); opacity: 0.2; transform-origin: 319.196px 122.12px;" class="animable"></path></g></g><g id="freepik--Character--inject-409" class="animable" style="transform-origin: 194.033px 278.702px;"><path d="M179.74,192c-1.69,1.73-3.5,3.64-5.17,5.54s-3.34,3.85-4.91,5.85-3,4-4.48,6.11l-1,1.57-1,1.59c-.33.53-.63,1.07-.92,1.62l-.8,1.47a8.23,8.23,0,0,0-.55,2.63,25.24,25.24,0,0,0,0,3.48,68.16,68.16,0,0,0,1,7.45c.44,2.52,1,5.05,1.59,7.57s1.24,5.07,1.9,7.55l-3.7,1.39A108.38,108.38,0,0,1,156,230.7a61.64,61.64,0,0,1-1.77-8.13,33,33,0,0,1-.31-4.42,14.31,14.31,0,0,1,.87-5.11c.23-.56.35-.78.51-1.12l.46-.95c.3-.63.61-1.26,1-1.87l1-1.84,1.06-1.79a76.28,76.28,0,0,1,4.61-6.83c1.64-2.19,3.34-4.32,5.13-6.38s3.6-4,5.68-6Z" style="fill: rgb(181, 91, 82); transform-origin: 166.829px 216.04px;" id="el6c2nrvtjlk" class="animable"></path><path d="M180.17,180c-5.42.24-10.57,9.24-10.57,9.24l7.16,14.61s9.7-8.08,9.82-16C186.66,182.66,185.5,179.75,180.17,180Z" style="fill: rgb(64, 123, 255); transform-origin: 178.092px 191.918px;" id="elotquryc2eac" class="animable"></path><g id="eljts2ys93yw"><path d="M180.17,180c-5.42.24-10.57,9.24-10.57,9.24l7.16,14.61s9.7-8.08,9.82-16C186.66,182.66,185.5,179.75,180.17,180Z" style="fill: rgb(255, 255, 255); opacity: 0.7; transform-origin: 178.092px 191.918px;" class="animable"></path></g><g id="elxrf6z5o1sdq"><path d="M181.46,190.5c-1.58,2.39-2.34,8.59-2.58,11.35a33.13,33.13,0,0,0,6-7.91C183.81,191.27,182.5,188.93,181.46,190.5Z" style="opacity: 0.2; transform-origin: 181.88px 195.922px;" class="animable"></path></g><path d="M164.33,242.91l6.59,2-4.39,4.44s-4.75-1.47-5.41-4.7Z" style="fill: rgb(181, 91, 82); transform-origin: 166.02px 246.13px;" id="els5gky1agx9s" class="animable"></path><polygon points="174.91 249.94 173.8 254.19 166.53 249.31 170.92 244.87 174.91 249.94" style="fill: rgb(181, 91, 82); transform-origin: 170.72px 249.53px;" id="el3ffh1npxf5i" class="animable"></polygon><path d="M218.27,162.65c-.21.59-.06,1.19.33,1.33s.87-.21,1.07-.8.06-1.2-.33-1.34S218.48,162.05,218.27,162.65Z" style="fill: rgb(38, 50, 56); transform-origin: 218.968px 162.91px;" id="elr12ez0j0mts" class="animable"></path><path d="M219.16,161.81l1.57.13S219.61,162.77,219.16,161.81Z" style="fill: rgb(38, 50, 56); transform-origin: 219.945px 162.042px;" id="el2yd6u7laf6w" class="animable"></path><path d="M218.57,163.41a17.28,17.28,0,0,0,.8,4.58,2.73,2.73,0,0,1-2.25-.4Z" style="fill: rgb(160, 39, 36); transform-origin: 218.245px 165.744px;" id="el65wg5pllxpf" class="animable"></path><path d="M220.21,160.34a.36.36,0,0,1-.3-.27A3.07,3.07,0,0,0,218.2,158a.37.37,0,0,1-.22-.47.36.36,0,0,1,.47-.22,3.78,3.78,0,0,1,2.18,2.63.37.37,0,0,1-.27.45Z" style="fill: rgb(38, 50, 56); transform-origin: 219.3px 158.838px;" id="elpn5t48qg74s" class="animable"></path><path d="M197.73,165.16c.14,4.73-.34,13.24-4,15.65,0,0,.49,4.86,9,6.51,9.35,1.81,5.23-3.75,5.23-3.75-4.9-2.2-4.15-5.94-2.68-9.3Z" style="fill: rgb(181, 91, 82); transform-origin: 201.297px 176.421px;" id="elfwvbd545m3d" class="animable"></path><path d="M225.52,197.53c.84,2.29,1.8,4.77,2.82,7.12s2,4.73,3.19,7,2.35,4.55,3.61,6.76c.65,1.09,1.3,2.18,2,3.22.34.54.69,1.06,1.06,1.55l.54.76.27.39.14.19.09.1a11,11,0,0,0,2.22,1.93,32.2,32.2,0,0,0,3.08,1.86c2.19,1.18,4.54,2.25,6.93,3.26s4.83,2,7.3,2.87,5,1.79,7.43,2.64l-.93,3.85a124.41,124.41,0,0,1-15.85-3.73,71.92,71.92,0,0,1-7.82-2.89,39.07,39.07,0,0,1-3.9-2,16.33,16.33,0,0,1-3.93-3.13l-.24-.27-.17-.21-.33-.41-.66-.84c-.45-.55-.88-1.11-1.28-1.68-.85-1.13-1.63-2.29-2.4-3.46a81.9,81.9,0,0,1-4.19-7.18c-1.27-2.45-2.47-4.92-3.57-7.44s-2.09-5-3-7.76Z" style="fill: rgb(181, 91, 82); transform-origin: 242.065px 219.28px;" id="el0shyeqxsngw" class="animable"></path><path d="M264.88,237.16l5.9-2.28-.29,6.81s-4.78,1.27-7-1.14Z" style="fill: rgb(181, 91, 82); transform-origin: 267.135px 238.452px;" id="el7enf0qsv3sm" class="animable"></path><polygon points="275.23 237.22 277.25 241.57 270.49 241.69 270.78 234.88 275.23 237.22" style="fill: rgb(181, 91, 82); transform-origin: 273.87px 238.285px;" id="el6x4eckiierd" class="animable"></polygon><polygon points="177.38 407.89 185.19 408.47 187.51 390.54 179.7 389.96 177.38 407.89" style="fill: rgb(181, 91, 82); transform-origin: 182.445px 399.215px;" id="elnfxe4bzpmf" class="animable"></polygon><polygon points="115.52 367.33 120.62 373.39 135.76 363.66 130.66 357.6 115.52 367.33" style="fill: rgb(181, 91, 82); transform-origin: 125.64px 365.495px;" id="ela1nbslh4jnd" class="animable"></polygon><path d="M123,372.61l-4.11-7.9a.62.62,0,0,0-.76-.32l-6.53,2.26a1.25,1.25,0,0,0-.63,1.76c1.48,2.73,2.33,4,4.13,7.45,1.12,2.13,2.53,5.37,4.06,8.32s4.45,1.64,4.07.27c-1.72-6.11-.58-7.8,0-10.45A2.14,2.14,0,0,0,123,372.61Z" style="fill: rgb(38, 50, 56); transform-origin: 117.04px 375.157px;" id="ellgcr9m4yp5c" class="animable"></path><path d="M185.68,407.36H176.9a.63.63,0,0,0-.63.53l-1.18,6.94a1.22,1.22,0,0,0,1.21,1.39c3.07-.05,4.54-.23,8.4-.23,2.38,0,7.28.25,10.56.25s3.54-3.24,2.18-3.54c-6.09-1.31-8.45-3.13-10.47-4.86A1.93,1.93,0,0,0,185.68,407.36Z" style="fill: rgb(38, 50, 56); transform-origin: 186.646px 411.8px;" id="elbv0b2v6z1el" class="animable"></path><g id="elz40sp5m6yee"><polygon points="187.51 390.54 186.22 400.51 178.44 399.73 179.7 389.97 187.51 390.54" style="opacity: 0.2; transform-origin: 182.975px 395.24px;" class="animable"></polygon></g><g id="elhw87uneiqi"><polygon points="130.66 357.6 135.76 363.66 129.49 367.69 124.2 361.75 130.66 357.6" style="opacity: 0.2; transform-origin: 129.98px 362.645px;" class="animable"></polygon></g><path d="M178,227.55l31.32,6.07c14.8-43.57,11.26-45,11.26-45a64.45,64.45,0,0,0-7.11-3.3l-.43-.16c-2-.73-2.42-.84-5.1-1.62-4.62-1.09-8.91-2-14.22-2.75l-1-.14c-1-.12-1.92-.22-2.84-.31-.62-.07-1.24-.11-1.83-.15l-2-.11c-3.42-.17-5.87-.12-5.87-.12C181.9,207.17,180.59,215,178,227.55Z" style="fill: rgb(64, 123, 255); transform-origin: 199.475px 206.787px;" id="elk6vvx0cabe8" class="animable"></path><g id="elyuhxqoopq8j"><path d="M178,227.55l31.32,6.07c14.8-43.57,11.26-45,11.26-45a64.45,64.45,0,0,0-7.11-3.3l-.43-.16c-2-.73-2.42-.84-5.1-1.62-4.62-1.09-8.91-2-14.22-2.75l-1-.14c-1-.12-1.92-.22-2.84-.31-.62-.07-1.24-.11-1.83-.15l-2-.11c-3.42-.17-5.87-.12-5.87-.12C181.9,207.17,180.59,215,178,227.55Z" style="fill: rgb(255, 255, 255); opacity: 0.7; transform-origin: 199.475px 206.787px;" class="animable"></path></g><g id="elzkucjr87eha"><path d="M216.08,198.79l-2.83-.46c0,3.73,1.42,10.13,2.8,14.2,1.17-4,2.08-7.29,2.77-10.06Z" style="opacity: 0.2; transform-origin: 216.035px 205.43px;" class="animable"></path></g><path d="M219.49,188.09c4.63,1.48,8,10.64,9.26,14.59l-9,10.57S210.53,200,212,195.89C213.44,191.61,217.25,187.36,219.49,188.09Z" style="fill: rgb(64, 123, 255); transform-origin: 220.296px 200.629px;" id="elra2akwk2qgk" class="animable"></path><g id="el0gfjsrcoccns"><path d="M219.49,188.09c4.63,1.48,8,10.64,9.26,14.59l-9,10.57S210.53,200,212,195.89C213.44,191.61,217.25,187.36,219.49,188.09Z" style="fill: rgb(255, 255, 255); opacity: 0.7; transform-origin: 220.296px 200.629px;" class="animable"></path></g><path d="M222.49,154.27c-.93,2.73-5,3.82-9.05,2.45s-6.61-4.72-5.68-7.45,5-3.82,9-2.44S223.41,151.54,222.49,154.27Z" style="fill: rgb(38, 50, 56); transform-origin: 215.121px 151.772px;" id="elkslv4gox8hr" class="animable"></path><path d="M199,153.52c-2.08,7.44-3.12,10.54-.74,15.66,3.58,7.71,13.16,8.92,17.42,2.31,3.83-5.94,6.59-17.11.47-22.7A10.33,10.33,0,0,0,199,153.52Z" style="fill: rgb(181, 91, 82); transform-origin: 208.317px 160.837px;" id="el23s3ozp33j6" class="animable"></path><path d="M210.62,144.83c-3,1.72-9.37-9.05-17.28,0-5.66,6.49-2.05,16-2.05,16s-4.51-7.93-8.11-4.06c-4.7,5,.16,22.89,15.66,21.66s14-13.81,14-13.81,7.26-7.38,6.9-14C219.47,145.66,215.62,142,210.62,144.83Z" style="fill: rgb(38, 50, 56); transform-origin: 200.608px 159.827px;" id="elmhsiwcpcebf" class="animable"></path><path d="M212.5,159.91a7,7,0,0,0,.14,4.21c.64,1.91,2.11,1.92,2.89.6s1.21-3.61.1-5.15S213,158.38,212.5,159.91Z" style="fill: rgb(181, 91, 82); transform-origin: 214.272px 162.108px;" id="elsjouoa5g9xl" class="animable"></path><path d="M201,232s-3.34,11.58-7.63,26.86c-2.85,10.18-6.13,22-9.12,33.13-1.71,6.37-3.32,12.51-4.71,18-7.86,31.05-47.06,57.74-47.06,57.74l-7.59-8.35s26.34-22.18,34-51.15c15.47-58.81,6.77-68.73,19.1-80.68Z" style="fill: rgb(38, 50, 56); transform-origin: 162.945px 297.64px;" id="ela3tuu1q59bo" class="animable"></path><g id="elxy2g12dls4"><path d="M197.62,242.38c-1.16,4.49-2.62,10.16-4.23,16.5-2.85,10.18-6.13,22-9.12,33.13-1.28-14.2-2-40.31,8.45-48.43C194.78,242,196.41,241.67,197.62,242.38Z" style="opacity: 0.2; transform-origin: 190.588px 267.017px;" class="animable"></path></g><polygon points="133.13 368.93 123.65 358.5 126.52 355.62 138.15 366.58 133.13 368.93" style="fill: rgb(64, 123, 255); transform-origin: 130.9px 362.275px;" id="el48lkzo2w9zc" class="animable"></polygon><g id="el0afhty2mdqf"><polygon points="133.13 368.93 123.65 358.5 126.52 355.62 138.15 366.58 133.13 368.93" style="fill: rgb(255, 255, 255); opacity: 0.7; transform-origin: 130.9px 362.275px;" class="animable"></polygon></g><path d="M124.43,376.85a.92.92,0,0,1-.28-.05c-.93-.34-1.52-2.12-1.79-3.15a.18.18,0,0,1,.07-.19.17.17,0,0,1,.2,0c.28.16,2.74,1.6,2.79,2.61a.61.61,0,0,1-.28.56A1.11,1.11,0,0,1,124.43,376.85ZM122.84,374c.41,1.35.93,2.26,1.44,2.44a.68.68,0,0,0,.64-.13c.13-.09.14-.18.13-.24C125,375.55,123.81,374.61,122.84,374Z" style="fill: rgb(64, 123, 255); transform-origin: 123.888px 375.139px;" id="el1fjby7l669y" class="animable"></path><path d="M208.82,233.62s2,61.82-2.42,85.11C201.86,343,188,398,188,398l-11.26-1.45s7.12-55.66,10.15-79.72c3.29-26.24-1-87.69-1-87.69Z" style="fill: rgb(38, 50, 56); transform-origin: 193.006px 313.57px;" id="el8vh20z253ge" class="animable"></path><polygon points="190.42 398.69 174.37 396.62 174.56 392.8 192.03 393.56 190.42 398.69" style="fill: rgb(64, 123, 255); transform-origin: 183.2px 395.745px;" id="elrehgrm3hyc" class="animable"></polygon><g id="elvmykh1hls2j"><polygon points="190.42 398.69 174.37 396.62 174.56 392.8 192.03 393.56 190.42 398.69" style="fill: rgb(255, 255, 255); opacity: 0.7; transform-origin: 183.2px 395.745px;" class="animable"></polygon></g><path d="M124.81,374.43a5.46,5.46,0,0,1-2.37-.67.19.19,0,0,1-.09-.16.23.23,0,0,1,.1-.16c.09,0,2-1.05,3.1-.64a1,1,0,0,1,.6.6.66.66,0,0,1-.17.8A1.9,1.9,0,0,1,124.81,374.43Zm-1.87-.81c.87.4,2.39.62,2.81.29.07-.06.14-.15,0-.38a.6.6,0,0,0-.38-.38A4.15,4.15,0,0,0,122.94,373.62Z" style="fill: rgb(64, 123, 255); transform-origin: 124.284px 373.575px;" id="elxqtqpfvg8k" class="animable"></path><path d="M188.58,408.72a13.33,13.33,0,0,1-2.45-.28.17.17,0,0,1-.15-.15.18.18,0,0,1,.1-.19c.36-.19,3.52-1.78,4.46-1.25a.58.58,0,0,1,.3.5,1,1,0,0,1-.36.89A3,3,0,0,1,188.58,408.72Zm-1.83-.54c1.72.29,3,.21,3.49-.21a.69.69,0,0,0,.23-.6.21.21,0,0,0-.11-.2C189.85,406.89,188.05,407.56,186.75,408.18Z" style="fill: rgb(64, 123, 255); transform-origin: 188.412px 407.737px;" id="elrofra3mjlij" class="animable"></path><path d="M186.17,408.45a.21.21,0,0,1-.11,0,.19.19,0,0,1-.08-.17c0-.14.39-3.52,2.28-3.32.5.05.65.3.68.51.14.88-1.75,2.58-2.7,3Zm1.94-3.17c-1.12,0-1.57,1.85-1.71,2.65,1-.58,2.26-1.91,2.18-2.44,0,0,0-.17-.36-.2Z" style="fill: rgb(64, 123, 255); transform-origin: 187.463px 406.711px;" id="elcmb8rqwagvt" class="animable"></path><path d="M177.8,225.64l-1.87,2.51c-.14.2.08.47.44.54l32.85,6.36c.28,0,.54,0,.58-.21l.75-2.74c0-.18-.17-.4-.48-.46l-31.72-6.14A.58.58,0,0,0,177.8,225.64Z" style="fill: rgb(64, 123, 255); transform-origin: 193.219px 230.265px;" id="elj10dpwwutem" class="animable"></path><path d="M181.48,230l-.85-.17c-.17,0-.28-.14-.25-.24l1-3.55c0-.1.2-.16.36-.13l.85.17c.17,0,.29.14.26.24l-1,3.55C181.81,230,181.65,230,181.48,230Z" style="fill: rgb(38, 50, 56); transform-origin: 181.615px 227.951px;" id="elqfuy8k49onb" class="animable"></path><path d="M202.93,234.19l-.85-.16c-.17,0-.28-.15-.25-.25l1-3.54c0-.11.19-.17.36-.13l.85.16c.16,0,.28.15.25.25l-1,3.54C203.26,234.17,203.1,234.23,202.93,234.19Z" style="fill: rgb(38, 50, 56); transform-origin: 203.06px 232.15px;" id="elf34srxka2p" class="animable"></path></g><defs>     <filter id="active" height="200%">         <feMorphology in="SourceAlpha" result="DILATED" operator="dilate" radius="2"></feMorphology>                <feFlood flood-color="#32DFEC" flood-opacity="1" result="PINK"></feFlood>        <feComposite in="PINK" in2="DILATED" operator="in" result="OUTLINE"></feComposite>        <feMerge>            <feMergeNode in="OUTLINE"></feMergeNode>            <feMergeNode in="SourceGraphic"></feMergeNode>        </feMerge>    </filter>    <filter id="hover" height="200%">        <feMorphology in="SourceAlpha" result="DILATED" operator="dilate" radius="2"></feMorphology>                <feFlood flood-color="#ff0000" flood-opacity="0.5" result="PINK"></feFlood>        <feComposite in="PINK" in2="DILATED" operator="in" result="OUTLINE"></feComposite>        <feMerge>            <feMergeNode in="OUTLINE"></feMergeNode>            <feMergeNode in="SourceGraphic"></feMergeNode>        </feMerge>            <feColorMatrix type="matrix" values="0   0   0   0   0                0   1   0   0   0                0   0   0   0   0                0   0   0   1   0 "></feColorMatrix>    </filter></defs></svg>